<svg xmlns="http://www.w3.org/2000/svg" version="1.1" xmlns:xlink="http://www.w3.org/1999/xlink" xmlns:svgjs="http://svgjs.dev/svgjs" width="1000" height="388" viewBox="0 0 1000 388"><g transform="matrix(1,0,0,1,-0.606028089755057,0.13667354073220395)"><svg viewBox="0 0 396 154" preserveAspectRatio="xMidYMid meet" height="388" width="1000" xmlns="http://www.w3.org/2000/svg" xmlns:xlink="http://www.w3.org/1999/xlink"><g id="tight-bounds" transform="matrix(1,0,0,1,0.23998713458075827,-0.05424671462051833)"><svg viewBox="0 0 395.52 154.10849342924104" height="154.10849342924104" width="395.52"><g><svg viewBox="0 0 395.52 154.10849342924104" height="154.10849342924104" width="395.52"><g><svg viewBox="0 0 395.52 154.10849342924104" height="154.10849342924104" width="395.52"><g><svg viewBox="0 0 395.52 154.10849342924104" height="154.10849342924104" width="395.52"><g><svg viewBox="0 0 395.52 108.85743243794627" height="108.85743243794627" width="395.52"><g transform="matrix(1,0,0,1,0,0)"><svg width="395.52" viewBox="4.199999809265137 -36.040000915527344 143.59999084472656 36.53000259399414" height="108.85743243794627" data-palette-color="#000000"><svg></svg><g class="undefined-text-0" data-fill-palette-color="primary" id="text-0"><path xmlns="http://www.w3.org/2000/svg" d="M4.2-35.55v35.55h11.38c1.513-0.013 2.98-0.25 4.4-0.71 1.427-0.453 2.683-1.113 3.77-1.98v0c1.093-0.847 1.967-1.903 2.62-3.17 0.647-1.267 0.963-2.73 0.95-4.39v0c0-1.06-0.16-2.047-0.48-2.96-0.313-0.913-0.757-1.733-1.33-2.46v0c-0.533-0.667-1.217-1.277-2.05-1.83-0.827-0.553-1.69-0.937-2.59-1.15v0-0.08c0.867-0.373 1.603-0.77 2.21-1.19 0.613-0.427 1.173-0.947 1.68-1.56v0c0.487-0.607 0.873-1.293 1.16-2.06 0.28-0.76 0.43-1.603 0.45-2.53v0c0.013-1.66-0.303-3.087-0.95-4.28-0.653-1.187-1.527-2.163-2.62-2.93v0c-1.087-0.76-2.33-1.323-3.73-1.69-1.4-0.367-2.833-0.56-4.3-0.58v0zM8.74-3.83v-12.8h7.2c0.96 0.033 1.857 0.197 2.69 0.49 0.827 0.293 1.55 0.71 2.17 1.25v0c0.62 0.553 1.103 1.22 1.45 2 0.353 0.78 0.52 1.673 0.5 2.68v0c0 0.993-0.19 1.883-0.57 2.67-0.38 0.78-0.897 1.437-1.55 1.97v0c-0.653 0.54-1.403 0.96-2.25 1.26-0.847 0.3-1.74 0.46-2.68 0.48v0zM15.04-20.39h-6.3v-11.3h6.18c0.88 0.013 1.737 0.127 2.57 0.34 0.84 0.213 1.587 0.54 2.24 0.98v0c0.633 0.453 1.14 1.03 1.52 1.73 0.387 0.7 0.58 1.547 0.58 2.54v0c0 0.927-0.197 1.74-0.59 2.44-0.393 0.7-0.907 1.287-1.54 1.76v0c-0.633 0.487-1.357 0.857-2.17 1.11-0.813 0.253-1.643 0.387-2.49 0.4zM57.37-15.72v0-4.06c-0.013-1.267-0.123-2.55-0.33-3.85-0.2-1.307-0.513-2.56-0.94-3.76v0c-0.44-1.207-0.987-2.333-1.64-3.38-0.66-1.053-1.447-1.97-2.36-2.75v0c-0.913-0.78-1.963-1.393-3.15-1.84-1.187-0.453-2.513-0.68-3.98-0.68v0c-1.467 0-2.79 0.227-3.97 0.68-1.18 0.447-2.223 1.06-3.13 1.84v0c-0.913 0.8-1.7 1.723-2.36 2.77-0.66 1.053-1.2 2.18-1.62 3.38v0c-0.44 1.207-0.763 2.457-0.97 3.75-0.2 1.293-0.31 2.573-0.33 3.84v0 4.06c0.02 1.267 0.133 2.543 0.34 3.83 0.213 1.287 0.54 2.533 0.98 3.74v0c0.427 1.2 0.973 2.327 1.64 3.38 0.667 1.047 1.457 1.96 2.37 2.74v0c0.907 0.787 1.95 1.403 3.13 1.85 1.18 0.447 2.503 0.67 3.97 0.67v0c1.467 0 2.79-0.223 3.97-0.67 1.18-0.447 2.223-1.063 3.13-1.85v0c0.913-0.78 1.7-1.69 2.36-2.73 0.66-1.04 1.2-2.163 1.62-3.37v0c0.427-1.207 0.74-2.457 0.94-3.75 0.207-1.293 0.317-2.573 0.33-3.84zM52.91-19.82v0 4.1c-0.02 0.847-0.073 1.733-0.16 2.66-0.093 0.927-0.253 1.837-0.48 2.73v0c-0.247 0.913-0.56 1.78-0.94 2.6-0.38 0.827-0.857 1.547-1.43 2.16v0c-0.587 0.64-1.283 1.147-2.09 1.52-0.8 0.373-1.73 0.56-2.79 0.56v0c-1.06 0-1.987-0.187-2.78-0.56-0.8-0.373-1.493-0.88-2.08-1.52v0c-0.587-0.613-1.073-1.337-1.46-2.17-0.393-0.827-0.713-1.697-0.96-2.61v0c-0.24-0.893-0.413-1.807-0.52-2.74-0.107-0.927-0.167-1.803-0.18-2.63v0-4.1c0.013-0.833 0.073-1.71 0.18-2.63 0.107-0.92 0.28-1.837 0.52-2.75v0c0.233-0.893 0.543-1.75 0.93-2.57 0.393-0.82 0.883-1.55 1.47-2.19v0c0.587-0.613 1.277-1.11 2.07-1.49 0.8-0.373 1.72-0.56 2.76-0.56v0c1.06 0 1.987 0.183 2.78 0.55 0.8 0.367 1.493 0.86 2.08 1.48v0c0.587 0.633 1.073 1.36 1.46 2.18 0.393 0.827 0.713 1.687 0.96 2.58v0c0.227 0.913 0.387 1.83 0.48 2.75 0.1 0.92 0.16 1.803 0.18 2.65zM61.79-35.55l4.32 35.55h4.64l4.35-25.27 0.27-1.51 0.24 1.49 4.32 25.29h4.62l4.32-35.55h-4.28l-2.56 24.47-0.15 1.46-0.26-1.44-4.33-24.49h-3.93l-4.29 24.47-0.27 1.46-0.15-1.42-2.56-24.51zM98.97-16.43h14.85v-3.83h-14.85v-11.43h17.09v-3.86h-21.6v35.55h21.82v-3.83h-17.31zM128.93-14.5h7.11l6.98 14.5h4.76l0.02-0.29-7.54-15.19c0.973-0.42 1.867-0.933 2.68-1.54 0.82-0.6 1.52-1.29 2.1-2.07v0c0.587-0.78 1.047-1.65 1.38-2.61 0.333-0.96 0.5-2.02 0.5-3.18v0c0-1.787-0.313-3.343-0.94-4.67-0.627-1.327-1.483-2.43-2.57-3.31v0c-1.107-0.88-2.393-1.54-3.86-1.98-1.467-0.44-3.03-0.677-4.69-0.71v0h-10.42v35.55h4.49zM134.99-18.21h-6.06v-13.63h5.93c1.093 0.02 2.1 0.177 3.02 0.47 0.92 0.293 1.713 0.723 2.38 1.29v0c0.667 0.587 1.187 1.307 1.56 2.16 0.373 0.853 0.56 1.85 0.56 2.99v0c0 1.073-0.193 2.023-0.58 2.85-0.393 0.82-0.923 1.513-1.59 2.08v0c-0.687 0.573-1.477 1.01-2.37 1.31-0.893 0.3-1.843 0.46-2.85 0.48z" fill="#000000" fill-rule="nonzero" stroke="none" stroke-width="1" stroke-linecap="butt" stroke-linejoin="miter" stroke-miterlimit="10" stroke-dasharray="" stroke-dashoffset="0" font-family="none" font-weight="none" font-size="none" text-anchor="none" style="mix-blend-mode: normal" data-fill-palette-color="primary" opacity="1"></path></g></svg></g></svg></g><g transform="matrix(1,0,0,1,0,132.60542260488268)"><svg viewBox="0 0 232.209792 21.50307082435833" height="21.50307082435833" width="232.209792"><g transform="matrix(1,0,0,1,0,0)"><svg width="232.209792" viewBox="1.850000023841858 -35.5 501.5799865722656 46" height="21.50307082435833" data-palette-color="#89939e"><path d="M4.15-8.9Q4.3-7.15 5.45-5.45 6.6-3.75 8.7-2.68 10.8-1.6 13.6-1.6L13.6-1.6Q17.75-1.6 20.48-3.45 23.2-5.3 23.2-9.35L23.2-9.35Q23.2-11.65 21.88-13.15 20.55-14.65 18.6-15.55 16.65-16.45 13.35-17.6L13.35-17.6Q9.85-18.8 7.75-19.8 5.65-20.8 4.2-22.53 2.75-24.25 2.75-26.9L2.75-26.9Q2.75-29.1 4-31.08 5.25-33.05 7.78-34.27 10.3-35.5 14-35.5L14-35.5Q16.45-35.5 18.05-35.15 19.65-34.8 21.3-34L21.3-34 20.6-31.85Q17.75-33.3 14.1-33.3L14.1-33.3Q10.1-33.3 7.6-31.6 5.1-29.9 5.1-26.75L5.1-26.75Q5.1-24.9 6.3-23.63 7.5-22.35 9.28-21.55 11.05-20.75 14.2-19.7L14.2-19.7Q17.85-18.45 20.13-17.35 22.4-16.25 24-14.35 25.6-12.45 25.6-9.5L25.6-9.5Q25.6-4.9 22.68-2.18 19.75 0.55 13.65 0.55L13.65 0.55Q9.95 0.55 7.33-0.83 4.7-2.2 3.33-4.38 1.95-6.55 1.85-8.9L1.85-8.9 4.15-8.9ZM30.4-15.8Q30.4-20.55 32.82-23.08 35.25-25.6 39.8-25.6L39.8-25.6Q44.15-25.6 46.6-22.98 49.05-20.35 49.05-15.8L49.05-15.8 49.05-9.2Q49.05-5 46.75-2.25 44.45 0.5 39.8 0.5L39.8 0.5Q35.15 0.5 32.77-2.27 30.4-5.05 30.4-9.2L30.4-9.2 30.4-15.8ZM32.65-8.85Q32.65-5.65 34.52-3.58 36.4-1.5 39.8-1.5L39.8-1.5Q43.2-1.5 45-3.55 46.8-5.6 46.8-8.85L46.8-8.85 46.8-15.85Q46.8-19.75 44.87-21.65 42.95-23.55 39.8-23.55L39.8-23.55Q36.55-23.55 34.6-21.68 32.65-19.8 32.65-15.85L32.65-15.85 32.65-8.85ZM54.84-8.45Q54.8-4.75 57-3.1 59.2-1.45 62.84-1.45L62.84-1.45Q65.4-1.45 68.2-2.15L68.2-2.15 68.7-0.3Q65.59 0.5 62.7 0.5L62.7 0.5Q60 0.5 58.2-0.1L58.2-0.1Q55.25-1.1 53.92-3.18 52.59-5.25 52.59-9L52.59-9 52.59-15.4Q52.59-20.35 55.2-22.93 57.8-25.5 61.9-25.5L61.9-25.5Q65.15-25.5 68.59-23.9L68.59-23.9 67.95-22.15Q65.05-23.45 62.2-23.45L62.2-23.45Q58.95-23.45 56.9-21.53 54.84-19.6 54.84-15.7L54.84-15.7 54.84-8.45ZM73.84-34.15Q73.84-34.7 74.27-35.1 74.69-35.5 75.24-35.5L75.24-35.5Q75.79-35.5 76.19-35.1 76.59-34.7 76.59-34.15L76.59-34.15Q76.59-33.6 76.19-33.18 75.79-32.75 75.24-32.75L75.24-32.75Q74.69-32.75 74.27-33.18 73.84-33.6 73.84-34.15L73.84-34.15ZM76.34-25.05L76.34 0 74.09 0 74.09-25.05 76.34-25.05ZM91.29-25.45Q96.09-25.45 98.37-23.93 100.64-22.4 101.17-20.3 101.69-18.2 101.69-14.9L101.69-14.9 101.69 0Q96.29 0.55 93.89 0.55L93.89 0.55Q88.64 0.55 85.54-1.4 82.44-3.35 82.44-8.45L82.44-8.45 82.44-12.6Q82.44-17.55 85.94-19.25L85.94-19.25Q87.64-20.1 90.24-20.1L90.24-20.1Q92.69-20.1 95.19-19.35 97.69-18.6 99.44-17.3L99.44-17.3Q99.44-20.15 97.69-21.93 95.94-23.7 91.14-23.65L91.14-23.65 91.29-25.45ZM84.64-8.1Q84.64-4.5 87.07-2.98 89.49-1.45 93.84-1.45L93.84-1.45Q95.84-1.45 99.44-1.9L99.44-1.9 99.44-15.45Q97.54-16.5 95.04-17.28 92.54-18.05 90.34-18.05L90.34-18.05Q87.79-18.05 86.22-16.75 84.64-15.45 84.64-12.45L84.64-12.45 84.64-8.1ZM109.64-35L109.64 0 107.39 0 107.39-35 109.64-35ZM133.03-9.35Q133.03-5.8 135.33-3.73 137.63-1.65 141.33-1.65L141.33-1.65Q145.13-1.65 147.16-3.8 149.18-5.95 149.18-9.25L149.18-9.25 149.18-12.8 145.23-12.8 144.43-15 151.33-15 151.33 0 149.63 0 149.13-2.75Q146.68 0.5 141.33 0.5L141.33 0.5Q138.53 0.5 136.13-0.55 133.73-1.6 132.26-3.85 130.78-6.1 130.78-9.45L130.78-9.45 130.78-25.15Q130.78-28.65 131.91-30.78 133.03-32.9 135.13-34.2L135.13-34.2Q137.33-35.45 140.53-35.45L140.53-35.45Q144.43-35.45 147.58-33.8L147.58-33.8 146.93-32.2Q144.08-33.4 141.38-33.45L141.38-33.45Q138.13-33.45 135.58-31.83 133.03-30.2 133.03-25.35L133.03-25.35 133.03-9.35ZM165.08-25.45Q169.88-25.45 172.16-23.93 174.43-22.4 174.96-20.3 175.48-18.2 175.48-14.9L175.48-14.9 175.48 0Q170.08 0.55 167.68 0.55L167.68 0.55Q162.43 0.55 159.33-1.4 156.23-3.35 156.23-8.45L156.23-8.45 156.23-12.6Q156.23-17.55 159.73-19.25L159.73-19.25Q161.43-20.1 164.03-20.1L164.03-20.1Q166.48-20.1 168.98-19.35 171.48-18.6 173.23-17.3L173.23-17.3Q173.23-20.15 171.48-21.93 169.73-23.7 164.93-23.65L164.93-23.65 165.08-25.45ZM158.43-8.1Q158.43-4.5 160.86-2.98 163.28-1.45 167.63-1.45L167.63-1.45Q169.63-1.45 173.23-1.9L173.23-1.9 173.23-15.45Q171.33-16.5 168.83-17.28 166.33-18.05 164.13-18.05L164.13-18.05Q161.58-18.05 160.01-16.75 158.43-15.45 158.43-12.45L158.43-12.45 158.43-8.1ZM183.43-25.05L183.23-23.55Q186.73-25.4 190.18-25.4L190.18-25.4Q192.18-25.4 193.83-24.78 195.48-24.15 196.53-22.95L196.53-22.95Q197.23-23.35 198.83-24.15L198.83-24.15Q201.73-25.5 204.48-25.5L204.48-25.5Q207.98-25.5 210.18-23.33 212.38-21.15 212.38-17.3L212.38-17.3 212.38 0 210.18 0 210.18-17.15Q210.18-20.35 208.48-21.95 206.78-23.55 204.13-23.55L204.13-23.55Q201.93-23.55 199.63-22.45L199.63-22.45 197.53-21.4Q198.28-19.95 198.28-17.1L198.28-17.1 198.28 0 196.08 0 196.08-17.65Q196.08-20.65 194.35-22.05 192.63-23.45 189.93-23.45L189.93-23.45Q188.28-23.45 186.53-22.98 184.78-22.5 183.43-21.7L183.43-21.7 183.43 0 181.18 0 181.18-25.05 183.43-25.05ZM218.03-34.15Q218.03-34.7 218.45-35.1 218.88-35.5 219.43-35.5L219.43-35.5Q219.98-35.5 220.38-35.1 220.78-34.7 220.78-34.15L220.78-34.15Q220.78-33.6 220.38-33.18 219.98-32.75 219.43-32.75L219.43-32.75Q218.88-32.75 218.45-33.18 218.03-33.6 218.03-34.15L218.03-34.15ZM220.53-25.05L220.53 0 218.28 0 218.28-25.05 220.53-25.05ZM237.47-33.4Q236.57-33.5 236.17-33.5L236.17-33.5Q233.67-33.5 232.3-31.98 230.92-30.45 230.92-27.45L230.92-27.45 230.92-25.05 237.17-25.05 236.22-22.9 230.92-22.9 230.92 0 228.67 0 228.67-27.45Q228.67-31.6 230.77-33.55 232.87-35.5 235.97-35.5L235.97-35.5Q236.92-35.5 237.82-35.35L237.82-35.35 237.47-33.4ZM242.67-34.15Q242.67-34.7 243.1-35.1 243.52-35.5 244.07-35.5L244.07-35.5Q244.62-35.5 245.02-35.1 245.42-34.7 245.42-34.15L245.42-34.15Q245.42-33.6 245.02-33.18 244.62-32.75 244.07-32.75L244.07-32.75Q243.52-32.75 243.1-33.18 242.67-33.6 242.67-34.15L242.67-34.15ZM245.17-25.05L245.17 0 242.92 0 242.92-25.05 245.17-25.05ZM253.32-8.45Q253.27-4.75 255.47-3.1 257.67-1.45 261.32-1.45L261.32-1.45Q263.87-1.45 266.67-2.15L266.67-2.15 267.17-0.3Q264.07 0.5 261.17 0.5L261.17 0.5Q258.47 0.5 256.67-0.1L256.67-0.1Q253.72-1.1 252.39-3.18 251.07-5.25 251.07-9L251.07-9 251.07-15.4Q251.07-20.35 253.67-22.93 256.27-25.5 260.37-25.5L260.37-25.5Q263.62-25.5 267.07-23.9L267.07-23.9 266.42-22.15Q263.52-23.45 260.67-23.45L260.67-23.45Q257.42-23.45 255.37-21.53 253.32-19.6 253.32-15.7L253.32-15.7 253.32-8.45ZM279.12-25.45Q283.92-25.45 286.19-23.93 288.47-22.4 288.99-20.3 289.52-18.2 289.52-14.9L289.52-14.9 289.52 0Q284.12 0.55 281.72 0.55L281.72 0.55Q276.47 0.55 273.37-1.4 270.27-3.35 270.27-8.45L270.27-8.45 270.27-12.6Q270.27-17.55 273.77-19.25L273.77-19.25Q275.47-20.1 278.07-20.1L278.07-20.1Q280.52-20.1 283.02-19.35 285.52-18.6 287.27-17.3L287.27-17.3Q287.27-20.15 285.52-21.93 283.77-23.7 278.97-23.65L278.97-23.65 279.12-25.45ZM272.47-8.1Q272.47-4.5 274.89-2.98 277.32-1.45 281.67-1.45L281.67-1.45Q283.67-1.45 287.27-1.9L287.27-1.9 287.27-15.45Q285.37-16.5 282.87-17.28 280.37-18.05 278.17-18.05L278.17-18.05Q275.62-18.05 274.04-16.75 272.47-15.45 272.47-12.45L272.47-12.45 272.47-8.1ZM295.16-35L295.16-25.05 301.71-25.05 300.71-22.9 295.16-22.9 295.16-6.6Q295.16-4.45 296.04-3.13 296.91-1.8 298.86-1.15L298.86-1.15 298.21 0.65Q295.41-0.15 294.16-1.9 292.91-3.65 292.91-6.6L292.91-6.6 292.91-35 295.16-35ZM306.76-34.15Q306.76-34.7 307.19-35.1 307.61-35.5 308.16-35.5L308.16-35.5Q308.71-35.5 309.11-35.1 309.51-34.7 309.51-34.15L309.51-34.15Q309.51-33.6 309.11-33.18 308.71-32.75 308.16-32.75L308.16-32.75Q307.61-32.75 307.19-33.18 306.76-33.6 306.76-34.15L306.76-34.15ZM309.26-25.05L309.26 0 307.01 0 307.01-25.05 309.26-25.05ZM315.86-15.8Q315.86-20.55 318.28-23.08 320.71-25.6 325.26-25.6L325.26-25.6Q329.61-25.6 332.06-22.98 334.51-20.35 334.51-15.8L334.51-15.8 334.51-9.2Q334.51-5 332.21-2.25 329.91 0.5 325.26 0.5L325.26 0.5Q320.61 0.5 318.23-2.27 315.86-5.05 315.86-9.2L315.86-9.2 315.86-15.8ZM318.11-8.85Q318.11-5.65 319.98-3.58 321.86-1.5 325.26-1.5L325.26-1.5Q328.66-1.5 330.46-3.55 332.26-5.6 332.26-8.85L332.26-8.85 332.26-15.85Q332.26-19.75 330.33-21.65 328.41-23.55 325.26-23.55L325.26-23.55Q322.01-23.55 320.06-21.68 318.11-19.8 318.11-15.85L318.11-15.85 318.11-8.85ZM341.7-25.05L341.7-23.7Q343.06-24.55 344.88-25 346.7-25.45 348.65-25.45L348.65-25.45Q351.7-25.45 353.65-24.5L353.65-24.5Q357.9-22.55 357.9-17.3L357.9-17.3 357.9 0 355.7 0 355.7-17.2Q355.7-20.45 353.7-21.95 351.7-23.45 348.65-23.45L348.65-23.45Q346.9-23.45 345.06-22.98 343.2-22.5 341.7-21.7L341.7-21.7 341.7 0 339.45 0 339.45-25.05 341.7-25.05ZM395.75-35L395.75-32.85 381.3-32.85 381.3-20.65 390.4-20.65 389.45-18.45 381.3-18.45 381.3 0 379.05 0 379.05-35 395.75-35ZM399.5-25.45Q404.3-25.45 406.57-23.93 408.85-22.4 409.37-20.3 409.9-18.2 409.9-14.9L409.9-14.9 409.9 0Q404.5 0.55 402.1 0.55L402.1 0.55Q396.85 0.55 393.75-1.4 390.65-3.35 390.65-8.45L390.65-8.45 390.65-12.6Q390.65-17.55 394.15-19.25L394.15-19.25Q395.85-20.1 398.45-20.1L398.45-20.1Q400.9-20.1 403.4-19.35 405.9-18.6 407.65-17.3L407.65-17.3Q407.65-20.15 405.9-21.93 404.15-23.7 399.35-23.65L399.35-23.65 399.5-25.45ZM392.85-8.1Q392.85-4.5 395.27-2.98 397.7-1.45 402.05-1.45L402.05-1.45Q404.05-1.45 407.65-1.9L407.65-1.9 407.65-15.45Q405.75-16.5 403.25-17.28 400.75-18.05 398.55-18.05L398.55-18.05Q396-18.05 394.42-16.75 392.85-15.45 392.85-12.45L392.85-12.45 392.85-8.1ZM415.75-8.45Q415.69-4.75 417.89-3.1 420.09-1.45 423.75-1.45L423.75-1.45Q426.3-1.45 429.09-2.15L429.09-2.15 429.59-0.3Q426.5 0.5 423.59 0.5L423.59 0.5Q420.89 0.5 419.09-0.1L419.09-0.1Q416.14-1.1 414.82-3.18 413.5-5.25 413.5-9L413.5-9 413.5-15.4Q413.5-20.35 416.09-22.93 418.69-25.5 422.8-25.5L422.8-25.5Q426.05-25.5 429.5-23.9L429.5-23.9 428.84-22.15Q425.94-23.45 423.09-23.45L423.09-23.45Q419.84-23.45 417.8-21.53 415.75-19.6 415.75-15.7L415.75-15.7 415.75-8.45ZM435.29-35L435.29-25.05 441.84-25.05 440.84-22.9 435.29-22.9 435.29-6.6Q435.29-4.45 436.17-3.13 437.04-1.8 438.99-1.15L438.99-1.15 438.34 0.65Q435.54-0.15 434.29-1.9 433.04-3.65 433.04-6.6L433.04-6.6 433.04-35 435.29-35ZM445.34-15.8Q445.34-20.55 447.76-23.08 450.19-25.6 454.74-25.6L454.74-25.6Q459.09-25.6 461.54-22.98 463.99-20.35 463.99-15.8L463.99-15.8 463.99-9.2Q463.99-5 461.69-2.25 459.39 0.5 454.74 0.5L454.74 0.5Q450.09 0.5 447.71-2.27 445.34-5.05 445.34-9.2L445.34-9.2 445.34-15.8ZM447.59-8.85Q447.59-5.65 449.46-3.58 451.34-1.5 454.74-1.5L454.74-1.5Q458.14-1.5 459.94-3.55 461.74-5.6 461.74-8.85L461.74-8.85 461.74-15.85Q461.74-19.75 459.81-21.65 457.89-23.55 454.74-23.55L454.74-23.55Q451.49-23.55 449.54-21.68 447.59-19.8 447.59-15.85L447.59-15.85 447.59-8.85ZM471.04-25.05L470.94-23.05Q473.44-25.5 477.54-25.5L477.54-25.5Q478.94-25.5 481.29-25.05L481.29-25.05 480.69-22.95Q479.04-23.45 477.39-23.45L477.39-23.45Q474.79-23.45 472.91-22.45 471.04-21.45 471.04-19.7L471.04-19.7 471.04 0 468.79 0 468.79-25.05 471.04-25.05ZM485.23-25.05L485.23-8.3Q485.23-5 487.06-3.23 488.88-1.45 492.23-1.45L492.23-1.45Q495.53-1.45 497.58-3.23 499.63-5 499.63-8.3L499.63-8.3 499.63-18.3Q499.63-20.6 499.76-21.78 499.88-22.95 500.56-23.95 501.23-24.95 502.78-25.5L502.78-25.5 503.43-23.95Q501.83-23.05 501.83-20.15L501.83-20.15 501.83 3.05Q501.83 6.1 500.63 7.85 499.43 9.6 496.58 10.5L496.58 10.5 495.98 8.75Q497.83 8.1 498.76 6.75 499.68 5.4 499.68 3.15L499.68 3.15 499.68-3Q498.63-1.1 496.58-0.25 494.53 0.6 492.23 0.6L492.23 0.6Q487.83 0.6 485.46-1.78 483.08-4.15 483.08-8.8L483.08-8.8 483.08-25.05 485.23-25.05Z" opacity="1" transform="matrix(1,0,0,1,0,0)" fill="#89939e" class="undefined-text-1" data-fill-palette-color="secondary" id="text-1"></path></svg></g></svg></g></svg></g></svg></g></svg></g><defs></defs></svg><rect width="395.52" height="154.10849342924104" fill="none" stroke="none" visibility="hidden"></rect></g></svg></g></svg>
